:SAMPLES-PER-SECOND 30
:FULLY-SPECIFIED
:DEGREES
558
root  -17.0328 39.0187 5.33479 176.568 -2.28885 171.17
RightUpLeg  -11.1536 -13.2675 -27.4344
RightLeg  7.71341 16.2761 -1.83407
RightFoot  -2.19763 -0.862958 10.4002
RightToes  0.00048216 0.542163 -0.142577
Spine  14.4198 1.50093 -5.86922
Spine1  5.2335 2.03958 -4.95508
HEad  2.26644 -11.358 1.40184
LeftShoulder1  6.62111 -10.1299 -42.1589
LeftArm  -21.4683 26.5805 -23.3414
LeftForeArm  22.9848 -38.2402 -7.4005
LeftHand  -0.25398 0.0180481 5.50724
RightShoulder  5.01481 8.28434 36.5445
RightArm  -5.79731 -14.0616 34.2479
RightForeArm  7.74734 15.4301 5.70909
RightHand  -0.732486 0.722448 -13.9865
LeftUpLeg  -4.4175 -6.5101 -3.99464
LeftLeg  24.8139 -0.296909 0.195311
LeftFoot  -15.5266 0.0131111 -2.17403
LeftToes  1.06246e-005 4.65856e-005 -8.18501e-006
559
root  -15.4519 38.908 4.91384 177.452 -7.45471 172.223
RightUpLeg  -10.5826 -11.5259 -26.439
RightLeg  10.7586 11.3528 -0.380177
RightFoot  0.581528 -1.54672 14.8717
RightToes  0.00048216 0.542163 -0.142577
Spine  15.0235 1.14329 -4.13027
Spine1  4.89583 1.78088 -4.61176
HEad  0.455435 -9.68624 0.190965
LeftShoulder1  6.56355 -9.96165 -42.3236
LeftArm  -23.0924 26.3954 -22.6845
LeftForeArm  22.5061 -38.8601 -7.61195
LeftHand  -0.25398 0.0180481 5.50724
RightShoulder  5.13452 8.41801 37.0572
RightArm  -6.21211 -14.436 34.5716
RightForeArm  7.48855 15.2513 5.74513
RightHand  -0.725386 0.706842 -13.8867
LeftUpLeg  -5.41985 -10.2504 -0.160924
LeftLeg  24.8007 -2.47029 -0.901274
LeftFoot  -15.7211 -0.078485 -4.52667
LeftToes  1.06246e-005 4.65856e-005 -8.18501e-006
560
root  -13.8902 38.9088 4.55654 177.586 -12.2831 174.318
RightUpLeg  -10.5301 -9.23648 -23.6839
RightLeg  15.4562 4.49427 0.535193
RightFoot  1.39508 -1.61919 14.4977
RightToes  0.00048216 0.542163 -0.142577
Spine  16.3672 0.587162 -0.278988
Spine1  4.40624 1.78038 -5.09169
HEad  -1.81383 -7.05035 -1.27637
LeftShoulder1  6.66282 -10.0827 -42.5989
LeftArm  -24.2779 26.3437 -22.3241
LeftForeArm  22.3293 -39.1795 -7.71796
LeftHand  -0.25398 0.0180481 5.50724
RightShoulder  5.21315 8.57666 37.1406
RightArm  -5.84412 -14.1643 35.1771
RightForeArm  6.89919 15.246 5.83434
RightHand  -0.688557 0.392596 -13.8692
LeftUpLeg  -6.14658 -14.0644 4.81712
LeftLeg  23.7014 -4.47946 -1.81121
LeftFoot  -14.8192 -0.136547 -7.58095
LeftToes  1.06246e-005 4.65856e-005 -8.18501e-006
561
root  -12.3644 39.067 4.197 177.508 -17.0383 176.566
RightUpLeg  -10.4787 -12.571 -19.6992
RightLeg  19.0207 2.39638 0.74834
RightFoot  -0.204681 -1.04747 10.6502
RightToes  0.00048216 0.542163 -0.142577
Spine  17.1913 0.212842 3.45016
Spine1  4.10801 1.89625 -4.87645
HEad  -3.77079 -4.18443 -2.912
LeftShoulder1  6.82964 -10.4003 -42.6767
LeftArm  -24.6544 26.5162 -22.7298
LeftForeArm  22.581 -38.8086 -7.59216
LeftHand  -0.25398 0.0180481 5.50724
RightShoulder  5.25251 8.77992 36.7589
RightArm  -3.60949 -13.8049 35.4616
RightForeArm  5.71579 15.9225 5.91707
RightHand  -0.678986 0.275182 -13.947
LeftUpLeg  -6.87668 -16.1651 9.6489
LeftLeg  21.3073 -4.17404 -1.48265
LeftFoot  -11.876 0.0243658 -8.70382
LeftToes  1.06246e-005 4.65856e-005 -8.18501e-006
562
root  -10.8348 39.3502 3.76553 178.167 -22.0605 177.684
RightUpLeg  -10.1663 -18.485 -16.4709
RightLeg  20.2575 2.06695 0.689644
RightFoot  -1.99308 -0.604079 7.25983
RightToes  0.00048216 0.542163 -0.142577
Spine  16.8713 0.366958 4.5056
Spine1  3.76531 1.8463 -3.24163
HEad  -5.17304 -1.40297 -4.181
LeftShoulder1  6.89538 -10.6237 -42.3895
LeftArm  -23.9794 26.9125 -23.9147
LeftForeArm  22.9708 -37.8726 -7.29509
LeftHand  -0.25398 0.0180481 5.50724
RightShoulder  5.28276 8.97009 36.3603
RightArm  0.645785 -13.5887 34.8259
RightForeArm  3.7002 17.421 5.83752
RightHand  -0.737136 0.638233 -14.2585
LeftUpLeg  -8.27863 -13.8414 12.5498
LeftLeg  18.6866 -0.441574 0.149913
LeftFoot  -7.21039 0.258592 -6.3475
LeftToes  1.06246e-005 4.65856e-005 -8.18501e-006
